# xmcd CD database file
#
# Track frame offsets:
#	150
#	13377
#	31250
#	40307
#	59272
#	76002
#	89430
#	102600
#	117352
#	131332
#	151470
#	175395
#	193000
#
# Disc length: 2731 seconds
#
# Revision: 0
# Processed by: cddbd v1.5.2PL0 Copyright (c) Steve Scherf et al.
# Submitted via: CDex 1.70beta2
#
DISCID=ab0aa90d
DTITLE=Chuck Marohnic - Sanctuary Jazz
DYEAR=1900
DGENRE=Jazz
TTITLE0=Amazing Grace
TTITLE1=Here I Am, Lord
TTITLE2=Do Lord
TTITLE3=Great Is They Faithfulness
TTITLE4=A Mighty Fortress
TTITLE5=Children's Medley
TTITLE6=Doxology
TTITLE7=Be Thou My Vision
TTITLE8=Morning Has Broken
TTITLE9=Surely The Presence Of The Lord
TTITLE10=You Satisfy The Hungry Heart
TTITLE11=How Great Thou Art
TTITLE12=Do Lord (Alternate Take)
EXTD=
EXTT0=
EXTT1=
EXTT2=
EXTT3=
EXTT4=
EXTT5=
EXTT6=
EXTT7=
EXTT8=
EXTT9=
EXTT10=
EXTT11=
EXTT12=
PLAYORDER=
